<svg width="30" height="30" viewBox="0 0 30 30" fill="none" xmlns="http://www.w3.org/2000/svg">
<g clip-path="url(#clip0)">
<path d="M13.5939 29.7996C6.09809 29.7996 0 23.7012 0 16.2057C0 8.71014 6.09809 2.61151 13.5939 2.61151C13.8527 2.61151 14.0628 2.82126 14.0628 3.08037V4.95392C14.0628 5.21302 13.8527 5.42278 13.5939 5.42278C13.3351 5.42278 13.1253 5.21302 13.1253 4.95392V3.55781C6.36256 3.80484 0.937446 9.38338 0.937446 16.2057C0.937446 23.1844 6.61523 28.8619 13.5939 28.8619C20.4159 28.8619 25.9947 23.437 26.242 16.6743H24.8443C24.5855 16.6743 24.3755 16.4648 24.3755 16.2057C24.3755 15.9466 24.5855 15.7368 24.8443 15.7368H26.7192C26.9781 15.7368 27.1878 15.9466 27.1878 16.2057C27.1878 23.7012 21.0897 29.7996 13.5939 29.7996Z" fill="white"/>
<path d="M13.5939 27.9244C7.13209 27.9244 1.87515 22.6675 1.87515 16.2056C1.87515 9.74357 7.13209 4.48663 13.5939 4.48663C20.056 4.48663 25.3129 9.74357 25.3129 16.2056C25.3129 22.6675 20.0557 27.9244 13.5939 27.9244ZM13.5939 5.42408C7.64896 5.42408 2.8126 10.2604 2.8126 16.2056C2.8126 22.1506 7.64896 26.9869 13.5939 26.9869C19.5388 26.9869 24.3755 22.1506 24.3755 16.2056C24.3755 10.2604 19.5388 5.42408 13.5939 5.42408Z" fill="white"/>
<path d="M10.7062 11.685C10.7062 11.5962 10.7655 11.5372 10.8543 11.5372H14.4171C16.4427 11.5372 17.448 12.5723 17.448 14.1835C17.448 15.3519 16.8861 16.0614 16.1026 16.3717V16.4015C16.7828 16.5938 17.6256 17.377 17.6256 18.7224C17.6256 20.6003 16.4427 21.5908 14.3433 21.5908H10.8543C10.7655 21.5908 10.7062 21.5318 10.7062 21.443V11.685ZM14.3876 15.8838C15.4964 15.8838 16.1469 15.2484 16.1469 14.3168C16.1469 13.3561 15.4964 12.7349 14.3876 12.7349H12.1106C12.0516 12.7349 12.0221 12.7646 12.0221 12.8236V15.7953C12.0221 15.8546 12.0516 15.8838 12.1106 15.8838H14.3876ZM12.1109 20.3932H14.4616C15.6592 20.3932 16.3097 19.7428 16.3097 18.7375C16.3097 17.7469 15.6592 17.0812 14.4616 17.0812H12.1109C12.0516 17.0812 12.0221 17.1109 12.0221 17.17V20.3044C12.0221 20.3634 12.0516 20.3932 12.1109 20.3932Z" fill="white"/>
<path d="M12.6564 11.9868C12.3976 11.9868 12.1876 11.777 12.1876 11.5179V10.1116C12.1876 9.85249 12.3976 9.64301 12.6564 9.64301C12.9153 9.64301 13.1253 9.85249 13.1253 10.1116V11.5179C13.1253 11.777 12.9153 11.9868 12.6564 11.9868Z" fill="white"/>
<path d="M14.0628 11.9868C13.8039 11.9868 13.5939 11.777 13.5939 11.5179V10.1116C13.5939 9.85249 13.8039 9.64301 14.0628 9.64301C14.3216 9.64301 14.5314 9.85249 14.5314 10.1116V11.5179C14.5314 11.777 14.3216 11.9868 14.0628 11.9868Z" fill="white"/>
<path d="M12.6564 23.2369C12.3976 23.2369 12.1876 23.0272 12.1876 22.7681V21.3618C12.1876 21.1027 12.3976 20.8932 12.6564 20.8932C12.9153 20.8932 13.1253 21.1027 13.1253 21.3618V22.7681C13.1253 23.0272 12.9153 23.2369 12.6564 23.2369Z" fill="white"/>
<path d="M14.0628 23.2369C13.8039 23.2369 13.5939 23.0272 13.5939 22.7681V21.3618C13.5939 21.1027 13.8039 20.8932 14.0628 20.8932C14.3216 20.8932 14.5314 21.1027 14.5314 21.3618V22.7681C14.5314 23.0272 14.3216 23.2369 14.0628 23.2369Z" fill="white"/>
<path d="M25.7815 10.5805C25.4057 10.5805 25.0525 10.434 24.7872 10.1685L21.9749 7.35588C21.4263 6.80735 21.4263 5.91578 21.9749 5.36726C22.5054 4.83644 23.4327 4.83644 23.9637 5.36726L24.3755 5.77925V1.67406C24.3755 0.898626 25.0063 0.267761 25.7818 0.267761C26.5572 0.267761 27.1881 0.898626 27.1881 1.67406V5.77925L27.6001 5.36726C28.1306 4.83644 29.0579 4.83644 29.5889 5.36726C30.1372 5.91578 30.1372 6.80735 29.5887 7.35588L26.7761 10.1685C26.5105 10.434 26.1575 10.5805 25.7815 10.5805ZM22.9692 5.89298C22.8439 5.89298 22.7262 5.94152 22.6379 6.03031C22.455 6.21297 22.455 6.51043 22.6376 6.69309L25.4502 9.5057C25.6273 9.68326 25.936 9.68326 26.1128 9.5057L28.9256 6.69309C29.1083 6.51043 29.1083 6.21297 28.9256 6.03031C28.7483 5.85247 28.4396 5.85247 28.2631 6.03031L27.0505 7.24242C26.9161 7.37653 26.7147 7.41676 26.5398 7.34407C26.3646 7.27165 26.2504 7.10052 26.2504 6.91116V1.67406C26.2504 1.4155 26.0401 1.20521 25.7815 1.20521C25.5232 1.20521 25.3129 1.4155 25.3129 1.67406V6.91116C25.3129 7.10052 25.1986 7.27165 25.0235 7.34407C24.8475 7.41676 24.6466 7.37653 24.5128 7.24242L23.3004 6.03031C23.2119 5.94152 23.0942 5.89298 22.9692 5.89298Z" fill="white"/>
</g>
<defs>
<clipPath id="clip0">
<rect width="30" height="30" fill="white"/>
</clipPath>
</defs>
</svg>
